<svg width="76" height="61" viewBox="0 0 76 61" fill="none" xmlns="http://www.w3.org/2000/svg">
<path fill-rule="evenodd" clip-rule="evenodd" d="M61.136 1.68003C61.048 3.08803 60.203 4.01403 58.75 4.29403L56.5 4.72803L58.695 4.86403C60.571 4.98003 60.945 5.69203 61.265 9.75003L61.64 14.5L61.82 9.75003L62 5.00003H69H76L75.864 2.25003C75.747 -0.107972 75.666 -0.178972 75.294 1.75003C74.899 3.80203 74.301 4.00003 68.5 4.00003C62.699 4.00003 62.101 3.80203 61.706 1.75003C61.275 -0.483972 61.271 -0.483972 61.136 1.68003ZM33.136 15.68C33.048 17.088 32.203 18.014 30.75 18.294L28.5 18.728L30.75 18.864C32.856 18.991 33 19.448 33 26V33L38.25 32.82L43.5 32.64L38.75 32.265L34 31.89V25.445V19H40.43C46.338 19 46.887 19.183 47.18 21.25C47.383 22.674 48.304 23.614 49.689 23.811C51.004 23.999 52.047 24.996 52.302 26.311L52.728 28.5L52.864 26.32C52.952 24.912 53.797 23.986 55.25 23.706L57.5 23.272L55.305 23.136C53.429 23.02 53.055 22.308 52.735 18.25L52.36 13.5L52.18 18.25C52.028 22.273 51.694 23 50 23C48.533 23 48 22.333 48 20.5C48 18.074 47.795 18 41.07 18C34.677 18 34.105 17.825 33.706 15.75C33.275 13.516 33.271 13.516 33.136 15.68ZM47 32.5V37H42.5H38V41.468V45.937L26.25 46.253L14.5 46.57L26.75 46.785L39 47V42.5V38H43.5H48V33C48 30.25 47.775 28 47.5 28C47.225 28 47 30.025 47 32.5ZM10 41.5C10 45.279 9.691 46 8.07 46C6.863 46 5.977 45.157 5.706 43.75C5.275 41.516 5.271 41.516 5.136 43.68C5.048 45.088 4.203 46.014 2.75 46.294L0.5 46.728L2.75 46.864C4.259 46.955 5 47.636 5 48.93C5 50.137 4.157 51.023 2.75 51.294C0.516 51.725 0.516 51.729 2.68 51.864C4.088 51.952 5.014 52.797 5.294 54.25L5.728 56.5L5.864 54.25C5.957 52.712 6.633 52 8 52C9.704 52 10 52.667 10 56.5C10 60.775 10.137 60.993 12.75 60.864C15.108 60.747 15.179 60.666 13.25 60.294C11.32 59.923 11 59.23 11 55.43C11 51.371 10.79 51 8.5 51C6.667 51 6 50.467 6 49C6 47.533 6.667 47 8.5 47C10.79 47 11 46.629 11 42.57C11 38.77 11.32 38.077 13.25 37.706C15.179 37.334 15.108 37.253 12.75 37.136C10.137 37.007 10 37.225 10 41.5ZM18.25 51.728C20.313 51.944 23.688 51.944 25.75 51.728C27.813 51.513 26.125 51.336 22 51.336C17.875 51.336 16.188 51.513 18.25 51.728Z" fill="black"/>
</svg>
