<svg width="55" height="53" viewBox="0 0 55 53" fill="none" xmlns="http://www.w3.org/2000/svg">
<path fill-rule="evenodd" clip-rule="evenodd" d="M42.9822 5.00361C44.3552 3.61801 45.565 2.08435 46.5378 0.71582L47.0319 1.64574C48.6225 4.82803 49.449 7.99753 49.449 11.5645L49.4456 17.2246L49.4754 20.1588C49.5906 27.3622 51.1493 34.6503 54.6799 41.32L47.2928 35.3633L42.0659 43.8452L36.5747 38.6759L27.7999 52.9157L19.0251 38.6761L13.5341 43.8454L8.30723 35.3635L0.919922 41.3202C4.45059 34.6505 6.0092 27.3624 6.12461 20.159L6.15448 17.2248L6.15107 11.5647C6.15107 7.99753 6.97731 4.82803 8.56835 1.64595L9.06221 0.716034C10.035 2.08457 11.2446 3.61801 12.6178 5.00382L12.189 5.89449C11.356 7.62441 11.0801 9.5587 11.7291 11.3983C12.1474 12.5831 12.911 13.5992 13.8953 14.3749C14.851 15.1282 15.9821 15.6359 17.1663 15.9026C17.9377 16.0762 18.7237 16.1477 19.5045 16.1234C19.3223 17.1561 19.2427 18.2273 19.2376 19.3187L12.2693 23.3434L17.6465 26.3576C18.0763 26.5986 18.4855 26.8747 18.8698 27.183C23.3031 31.1634 25.9685 42.9388 27.8001 48.6904C29.632 42.9388 32.2972 31.1634 36.7307 27.183C37.115 26.8746 37.5241 26.5986 37.9539 26.3576L43.3312 23.3434L36.3627 19.3187C36.3576 18.2273 36.278 17.1561 36.0958 16.1234C36.8766 16.1477 37.6625 16.0762 38.4339 15.9026C39.6182 15.6359 40.7495 15.1282 41.705 14.3749C42.6891 13.5992 43.4528 12.5831 43.871 11.3983C44.5201 9.5587 44.2441 7.62462 43.4112 5.89449L42.9824 5.00382L42.9822 5.00361Z" fill="white"/>
</svg>
