<svg width="63" height="63" viewBox="0 0 63 63" fill="none" xmlns="http://www.w3.org/2000/svg">
<path fill-rule="evenodd" clip-rule="evenodd" d="M57.3764 12.7845C59.9501 16.2167 61.8049 20.1317 62.8299 24.2956C58.6811 18.724 52.6325 13.3621 45.122 9.00475C37.6118 4.64736 29.9536 2.06076 23.0544 1.21754C27.1841 0.0444668 31.5083 -0.285472 35.7686 0.247427C40.0288 0.780327 44.1379 2.16513 47.8504 4.31916C51.5629 6.47319 54.8028 9.35227 57.3764 12.7845ZM0 30.4848C6.06446 25.8639 18.6757 26.9011 30.088 33.5225C41.5035 40.145 48.6539 50.5725 47.6386 58.1236C46.3737 58.8287 45.0622 59.4475 43.7134 59.9756C43.3016 58.1602 42.687 56.3966 41.8812 54.718C38.9662 48.5911 33.6215 43.0404 26.8416 39.1046C20.0615 35.169 12.5901 33.2832 5.81326 33.7924C3.95397 33.9262 2.11536 34.2663 0.3314 34.8064C0.122635 33.375 0.0119118 31.9311 0 30.4848ZM15.9181 57.8848C12.0207 55.6239 8.64595 52.566 6.015 48.9113C10.1702 49.1948 14.6019 50.5209 18.7867 52.9483C22.9714 55.3758 26.3235 58.5641 28.6296 62.0298C24.1472 61.5581 19.8155 60.1455 15.9181 57.8848ZM24.4105 43.2822C16.3482 38.6043 7.62201 37.4122 1.37813 39.5182C1.9809 41.5077 2.77585 43.4341 3.75178 45.2702C9.17665 45.1446 15.0997 46.6161 20.611 49.8129C26.1225 53.0098 30.3379 57.422 32.9174 62.1915C34.9989 62.1278 37.0695 61.8629 39.1 61.4009C37.8376 54.9419 32.471 47.961 24.4105 43.2822ZM52.7917 39.5659C49.2601 33.7088 43.2106 28.1002 35.7581 23.7767C28.3058 19.4529 20.4324 16.9833 13.5943 16.8199C7.5784 16.6776 3.06331 18.4242 1.20998 21.6106C1.20416 21.621 1.19705 21.6311 1.1899 21.6413C1.18409 21.6495 1.17825 21.6579 1.17304 21.6664C1.00628 22.264 0.862748 22.8626 0.731875 23.4636C3.31978 22.4432 6.31823 21.8751 9.65231 21.8118C17.0666 21.6728 25.3643 24.0412 33.0215 28.4838C40.6785 32.9267 46.8538 38.9547 50.4042 45.4538C51.9959 48.3819 52.989 51.2647 53.3827 54.0188C53.8408 53.6099 54.2903 53.1872 54.7262 52.7478C54.7325 52.7371 54.7375 52.7261 54.7425 52.7149L54.7426 52.7148C54.7449 52.7099 54.7471 52.7049 54.7495 52.6999C54.7518 52.6951 54.7542 52.6904 54.7568 52.6856C56.6102 49.4961 55.8935 44.7149 52.7917 39.5659ZM41.4824 13.936C48.9877 18.2881 55.0902 23.9124 58.6616 29.7634C61.3826 34.2251 62.2871 38.3663 61.2475 41.3714C58.2142 33.0751 50.3556 24.3225 39.2059 17.8538C28.0565 11.3852 16.5534 8.90507 7.8325 10.3807C9.9328 7.98911 13.9835 6.72323 19.2131 6.87395C26.0733 7.07527 33.9774 9.58388 41.4824 13.936Z" fill="url(#paint0_linear_22_687)"/>
<defs>
<linearGradient id="paint0_linear_22_687" x1="41.5936" y1="12.6327" x2="12.9524" y2="62.5165" gradientUnits="userSpaceOnUse">
<stop offset="0.0001" stop-color="#C7F284"/>
<stop offset="1" stop-color="#00BEF0"/>
</linearGradient>
</defs>
</svg>
