<svg width="275" height="65" viewBox="0 0 275 65" fill="none" xmlns="http://www.w3.org/2000/svg">
<g opacity="0.5" clip-path="url(#clip0_22_746)">
<path d="M0.411646 17.5547C0.144076 18.3499 0 19.2062 0 20.0625V44.9371C0 47.6692 1.3996 50.1974 3.66365 51.5431L24.3489 63.9803C26.6129 65.3464 29.4121 65.3464 31.6761 63.9803L52.3614 51.5431C53.0817 51.1149 53.7198 50.5644 54.2549 49.912L0.411646 17.5547Z" fill="url(#paint0_linear_22_746)"/>
<path d="M55.6339 47.4453C55.9014 46.6502 56.0455 45.7938 56.0455 44.9375V20.063C56.0455 17.3308 54.6459 14.8026 52.3819 13.4569L31.6761 1.01966C29.412 -0.346398 26.6128 -0.346398 24.3488 1.01966L3.66359 13.4569C2.94321 13.8851 2.30516 14.4356 1.77002 15.088L55.6339 47.4453Z" fill="url(#paint1_linear_22_746)"/>
<path d="M5.68071 12.2539L3.66365 13.4569C1.3996 14.8229 0 17.3308 0 20.0629C0 21.5513 0.761545 22.9173 1.99648 23.6717L50.3649 52.7668L52.3613 51.5638C54.6254 50.1978 56.025 47.6899 56.025 44.9578C56.025 43.4694 55.2635 42.1033 54.0285 41.349L5.68071 12.2539Z" fill="url(#paint2_linear_22_746)"/>
<path d="M102.418 22.9579C102.191 20.7967 101.244 19.084 99.5361 17.8199C97.8278 16.5558 95.6873 15.9033 93.1145 15.9033C91.3032 15.9033 89.6978 16.2092 88.3188 16.8208C86.9398 17.4325 85.8489 18.2888 85.0668 19.3898C84.2847 20.4705 83.8936 21.7142 83.8936 23.1006C83.8936 24.1201 84.12 25.0172 84.5522 25.792C85.005 26.5668 85.6019 27.2192 86.3635 27.7697C87.125 28.3202 87.9689 28.7892 88.8745 29.1765C89.8007 29.5639 90.7269 29.8902 91.6737 30.1552L95.7902 31.3174C97.0457 31.664 98.2806 32.0922 99.5361 32.6223C100.792 33.1524 101.924 33.8252 102.953 34.6204C103.982 35.4156 104.826 36.3942 105.443 37.5564C106.081 38.7186 106.39 40.0846 106.39 41.6954C106.39 43.7547 105.855 45.61 104.764 47.2616C103.673 48.9131 102.13 50.218 100.112 51.1762C98.0954 52.1345 95.6667 52.6239 92.8469 52.6239C90.1918 52.6239 87.8866 52.1957 85.9313 51.319C83.9759 50.4422 82.4323 49.2393 81.3208 47.6897C80.2094 46.1402 79.5713 44.3459 79.4272 42.307H83.0909C83.2144 43.8362 83.7289 45.1207 84.614 46.1809C85.499 47.2412 86.6516 48.0363 88.0924 48.5868C89.5126 49.1373 91.0974 49.4024 92.8675 49.4024C94.8228 49.4024 96.5517 49.0762 98.0748 48.4237C99.5979 47.7713 100.792 46.8742 101.656 45.712C102.521 44.5498 102.953 43.1838 102.953 41.6342C102.953 40.3293 102.603 39.2283 101.924 38.3312C101.244 37.4341 100.277 36.7001 99.0628 36.0884C97.8278 35.4767 96.4076 34.9466 94.8022 34.4777L90.13 33.1116C87.0633 32.2145 84.6963 30.9504 82.988 29.36C81.3002 27.7697 80.4564 25.7104 80.4564 23.2434C80.4564 21.1637 81.0121 19.3287 82.1441 17.7587C83.2761 16.1684 84.7992 14.9451 86.7134 14.0479C88.6481 13.1508 90.8093 12.7227 93.2174 12.7227C95.6461 12.7227 97.7867 13.1712 99.6596 14.0479C101.533 14.9247 103.015 16.148 104.105 17.6772C105.196 19.2267 105.793 20.9802 105.875 22.9375H102.418V22.9579Z" fill="white"/>
<path d="M125.696 52.6033C123.164 52.6033 120.921 51.9712 118.986 50.6867C117.052 49.4226 115.528 47.6487 114.438 45.4059C113.347 43.1632 112.791 40.5534 112.791 37.6174C112.791 34.6406 113.347 32.0308 114.438 29.7676C115.528 27.5044 117.052 25.751 118.986 24.4665C120.921 23.2024 123.164 22.5703 125.696 22.5703C128.228 22.5703 130.451 23.2024 132.385 24.4869C134.32 25.751 135.843 27.5248 136.934 29.788C138.025 32.0512 138.581 34.661 138.581 37.6378C138.581 40.5942 138.025 43.1836 136.934 45.4263C135.843 47.6691 134.32 49.443 132.385 50.7071C130.471 51.9712 128.228 52.6033 125.696 52.6033ZM125.696 49.5245C127.734 49.5245 129.463 48.974 130.862 47.8934C132.282 46.8128 133.353 45.3652 134.073 43.5709C134.814 41.7767 135.164 39.7786 135.164 37.6174C135.164 35.4561 134.793 33.458 134.073 31.6434C133.332 29.8288 132.262 28.3812 130.862 27.2802C129.442 26.1792 127.734 25.6287 125.696 25.6287C123.679 25.6287 121.95 26.1792 120.53 27.2802C119.11 28.3812 118.04 29.8288 117.299 31.6434C116.558 33.458 116.208 35.4561 116.208 37.6174C116.208 39.7786 116.578 41.7767 117.299 43.5709C118.04 45.3652 119.11 46.8128 120.509 47.8934C121.95 48.974 123.658 49.5245 125.696 49.5245Z" fill="white"/>
<path d="M149.448 13.2935V51.9917H146.052V13.2935H149.448Z" fill="white"/>
<path d="M159.122 51.9917V13.2935H162.539V28.5036H162.847C163.239 27.6269 163.774 26.7502 164.494 25.8123C165.214 24.8948 166.161 24.12 167.334 23.4879C168.508 22.8559 169.99 22.55 171.78 22.55C174.188 22.55 176.288 23.1821 178.12 24.4258C179.931 25.6696 181.351 27.423 182.38 29.6862C183.389 31.929 183.903 34.5591 183.903 37.5359C183.903 40.5331 183.389 43.1633 182.38 45.4265C181.372 47.6896 179.951 49.4431 178.14 50.7072C176.329 51.9713 174.229 52.6034 171.842 52.6034C170.051 52.6034 168.569 52.2975 167.396 51.6655C166.202 51.0334 165.256 50.2586 164.535 49.3411C163.815 48.4236 163.259 47.5061 162.847 46.6294H162.436V51.9917H159.122ZM162.477 37.4952C162.477 39.8399 162.827 41.9196 163.527 43.7138C164.226 45.5284 165.256 46.9352 166.573 47.9751C167.911 48.9945 169.516 49.5246 171.41 49.5246C173.365 49.5246 175.012 48.9945 176.349 47.9343C177.687 46.8741 178.716 45.4265 179.416 43.6118C180.116 41.7972 180.466 39.7583 180.466 37.5155C180.466 35.2931 180.116 33.2746 179.416 31.4804C178.716 29.6862 177.708 28.2793 176.349 27.2191C175.012 26.1589 173.344 25.6492 171.389 25.6492C169.475 25.6492 167.87 26.1589 166.532 27.1783C165.194 28.1978 164.185 29.5842 163.486 31.3785C162.827 33.1319 162.477 35.1912 162.477 37.4952Z" fill="white"/>
<path d="M199.546 52.6644C197.776 52.6644 196.17 52.3178 194.709 51.6246C193.247 50.9314 192.074 49.9527 191.21 48.6478C190.345 47.3429 189.913 45.7526 189.913 43.8972C189.913 42.4699 190.181 41.2466 190.736 40.2679C191.292 39.2893 192.054 38.4737 193.062 37.8416C194.071 37.2096 195.264 36.7203 196.623 36.3532C198.002 35.9862 199.504 35.7008 201.172 35.4969C202.818 35.293 204.197 35.1095 205.35 34.9668C206.482 34.8241 207.346 34.5794 207.964 34.2532C208.561 33.927 208.869 33.3968 208.869 32.6628V31.99C208.869 30.0123 208.272 28.4627 207.079 27.3209C205.885 26.1792 204.177 25.6083 201.954 25.6083C199.834 25.6083 198.125 26.0772 196.788 26.9947C195.45 27.9122 194.524 28.9928 193.988 30.2366L190.757 29.0744C191.416 27.4841 192.342 26.2199 193.494 25.2617C194.668 24.3034 195.964 23.6305 197.426 23.2024C198.866 22.7742 200.348 22.5703 201.83 22.5703C202.942 22.5703 204.115 22.713 205.329 22.9985C206.544 23.2839 207.676 23.7936 208.725 24.5073C209.775 25.2209 210.619 26.1995 211.257 27.4841C211.895 28.7686 212.224 30.3589 212.224 32.2958V51.9916H208.828V47.4041H208.622C208.211 48.2604 207.614 49.0963 206.811 49.8915C206.008 50.7071 205 51.3595 203.806 51.8692C202.592 52.3994 201.172 52.6644 199.546 52.6644ZM199.998 49.5653C201.81 49.5653 203.374 49.1779 204.691 48.3827C206.008 47.5876 207.038 46.5273 207.758 45.2224C208.478 43.8972 208.828 42.4495 208.828 40.8592V36.6591C208.581 36.9038 208.149 37.1076 207.552 37.3115C206.955 37.495 206.276 37.6581 205.514 37.8213C204.753 37.964 203.971 38.0863 203.209 38.1883C202.448 38.2902 201.768 38.3718 201.151 38.4533C199.504 38.6572 198.084 38.963 196.911 39.3912C195.738 39.8194 194.853 40.4107 194.215 41.165C193.597 41.9194 193.289 42.8777 193.289 44.0399C193.289 45.8137 193.927 47.1594 195.203 48.1381C196.479 49.1167 198.084 49.5653 199.998 49.5653Z" fill="white"/>
<path d="M224.656 33.8455V51.9917H221.26V22.9578H224.553V27.5249H224.862C225.541 26.0366 226.611 24.854 228.072 23.9365C229.534 23.0394 231.325 22.5908 233.486 22.5908C235.462 22.5908 237.19 22.9986 238.693 23.8142C240.195 24.6297 241.348 25.8123 242.192 27.4026C243.015 28.9726 243.447 30.9095 243.447 33.2135V51.9917H240.051V33.397C240.051 31.0115 239.372 29.1357 238.034 27.7492C236.696 26.3628 234.906 25.6696 232.642 25.6696C231.098 25.6696 229.74 25.9958 228.546 26.6482C227.352 27.3007 226.405 28.2386 225.706 29.4823C224.985 30.7056 224.656 32.1736 224.656 33.8455Z" fill="white"/>
<path d="M252.38 51.9917V13.2935H255.776V51.9917H252.38ZM255.468 41.0428L255.427 36.6388H256.188L269.916 22.9782H274.218L260.654 36.4349L260.346 36.4961L255.468 41.0428ZM270.637 51.9917L258.74 37.0874L261.19 34.763L275 51.9917H270.637Z" fill="white"/>
</g>
<defs>
<linearGradient id="paint0_linear_22_746" x1="-6.74074" y1="29.8306" x2="47.539" y2="61.4661" gradientUnits="userSpaceOnUse">
<stop offset="0.1274" stop-color="#9345F7" stop-opacity="0"/>
<stop offset="0.8793" stop-color="#9345F7"/>
</linearGradient>
<linearGradient id="paint1_linear_22_746" x1="8.24451" y1="3.98481" x2="62.527" y2="35.622" gradientUnits="userSpaceOnUse">
<stop offset="0.1165" stop-color="#14C17B"/>
<stop offset="0.8868" stop-color="#14C17B" stop-opacity="0"/>
</linearGradient>
<linearGradient id="paint2_linear_22_746" x1="0.636116" y1="16.8418" x2="55.1412" y2="48.6088" gradientUnits="userSpaceOnUse">
<stop offset="0.3155" stop-color="#14C17B"/>
<stop offset="0.6762" stop-color="#9345F7"/>
</linearGradient>
<clipPath id="clip0_22_746">
<rect width="275" height="65" fill="white"/>
</clipPath>
</defs>
</svg>
