<svg width="171" height="128" viewBox="0 0 171 128" fill="none" xmlns="http://www.w3.org/2000/svg">
<path fill-rule="evenodd" clip-rule="evenodd" d="M123.913 126.085C123.913 125.053 123.067 124.216 122.024 124.216C120.981 124.216 120.135 125.053 120.135 126.085C120.135 127.117 120.981 127.954 122.024 127.954C123.067 127.954 123.913 127.117 123.913 126.085ZM121.765 36.6346C121.641 35.7276 120.895 35.0279 119.971 34.9517C118.884 34.8619 117.928 35.6603 117.837 36.7351L116.398 53.747C115.948 59.0454 109.812 61.7665 105.555 58.565L100.205 54.5214C99.5351 54.015 98.5991 54.0355 97.9525 54.5708C97.1896 55.2024 97.0895 56.3255 97.7289 57.0791L102.085 62.2146C105.523 66.2807 103.113 72.5393 97.8279 73.2597L79.6367 76.1016C78.9306 76.2119 78.3891 76.7797 78.3197 77.4827C78.2355 78.3351 78.8667 79.0936 79.7295 79.1768L97.0567 80.8471C102.567 81.3111 105.218 87.8101 101.603 91.972L80.6996 116.096C80.2973 116.56 80.3101 117.248 80.7293 117.698C81.1862 118.188 81.9585 118.219 82.4543 117.767L106.406 95.9578C110.438 92.292 116.944 94.6294 117.683 100.024L120.44 119.984C120.539 120.705 121.132 121.26 121.865 121.32C122.729 121.391 123.487 120.757 123.559 119.903L125.297 99.2392C125.747 93.9408 131.884 91.2197 136.141 94.4211L144.03 100.379C144.57 100.787 145.325 100.77 145.846 100.339C146.461 99.8293 146.542 98.9237 146.026 98.3158L139.627 90.7715C136.189 86.7056 138.583 80.4469 143.868 79.7265L162.071 76.8842C162.777 76.7739 163.319 76.2061 163.388 75.5031C163.472 74.6507 162.841 73.8922 161.978 73.809L144.655 72.1391C139.145 71.6751 136.478 65.1762 140.093 61.0141L159.726 38.3663C160.167 37.8579 160.153 37.1042 159.694 36.6119C159.194 36.0753 158.348 36.0411 157.805 36.5354L135.29 57.0283C131.273 60.6941 124.767 58.3569 124.013 52.9624L121.765 36.6346ZM75.7787 77.4417C75.7787 76.4098 74.9328 75.5731 73.8893 75.5731C72.8459 75.5731 72 76.4098 72 77.4417C72 78.4738 72.8459 79.3105 73.8893 79.3105C74.9328 79.3105 75.7787 78.4738 75.7787 77.4417ZM170.536 75.5444C170.536 74.5124 169.691 73.6756 168.647 73.6756C167.604 73.6756 166.758 74.5124 166.758 75.5444C166.758 76.5764 167.604 77.413 168.647 77.413C169.691 77.413 170.536 76.5764 170.536 75.5444ZM121.588 30.8687C121.588 29.8366 120.742 29 119.699 29C118.655 29 117.809 29.8366 117.809 30.8687C117.809 31.9007 118.655 32.7374 119.699 32.7374C120.742 32.7374 121.588 31.9007 121.588 30.8687Z" fill="#FFFDF8"/>
<path d="M10.058 70C20.9049 70 29.0564 60.6709 33.9209 53.2991C33.3294 54.93 33.0007 56.5609 33.0007 58.1269C33.0007 62.4325 35.4987 65.4987 40.4293 65.4987C47.2002 65.4987 54.4315 59.6272 58.1786 53.2991C57.9157 54.2125 57.7842 55.0606 57.7842 55.8434C57.7842 58.8444 59.4935 60.7363 62.9774 60.7363C73.9558 60.7363 85 41.4912 85 24.6598C85 11.5471 78.2945 0 61.4656 0C31.8831 0 0 35.7503 0 58.8444C0 67.9125 4.93038 70 10.058 70ZM51.2759 23.2246C51.2759 19.9627 53.1166 17.6794 55.8121 17.6794C58.4415 17.6794 60.2822 19.9627 60.2822 23.2246C60.2822 26.4865 58.4415 28.835 55.8121 28.835C53.1166 28.835 51.2759 26.4865 51.2759 23.2246ZM65.3442 23.2246C65.3442 19.9627 67.1849 17.6794 69.8801 17.6794C72.5095 17.6794 74.3502 19.9627 74.3502 23.2246C74.3502 26.4865 72.5095 28.835 69.8801 28.835C67.1849 28.835 65.3442 26.4865 65.3442 23.2246Z" fill="#FFFDF8"/>
</svg>
