<svg width="135" height="118" viewBox="0 0 135 118" fill="none" xmlns="http://www.w3.org/2000/svg">
<g clip-path="url(#clip0_22_30)">
<path d="M134.305 93.0346L112.019 116.393C111.535 116.9 110.948 117.305 110.297 117.581C109.646 117.858 108.943 118 108.233 118H2.58723C2.08313 118 1.59002 117.856 1.16849 117.586C0.74695 117.316 0.415346 116.931 0.214417 116.479C0.0134897 116.028 -0.0480093 115.528 0.0374768 115.043C0.122963 114.557 0.35171 114.107 0.695614 113.746L22.9983 90.388C23.4814 89.8819 24.0657 89.4782 24.7149 89.2018C25.3642 88.9253 26.0646 88.7821 26.7729 88.7809H132.413C132.917 88.7809 133.41 88.9249 133.832 89.195C134.253 89.4652 134.584 89.8499 134.786 90.3016C134.987 90.7535 135.048 91.2528 134.963 91.7383C134.877 92.2238 134.648 92.6744 134.305 93.0346ZM112.019 45.9975C111.535 45.4901 110.948 45.0855 110.297 44.809C109.646 44.5327 108.943 44.3901 108.233 44.3905H2.58723C2.08313 44.3905 1.59002 44.5344 1.16849 44.8046C0.74695 45.0748 0.415346 45.4594 0.214417 45.9111C0.0134897 46.363 -0.0480093 46.8624 0.0374768 47.3479C0.122963 47.8333 0.35171 48.2839 0.695614 48.6442L22.9983 72.0025C23.4814 72.5086 24.0657 72.9122 24.7149 73.1887C25.3642 73.4651 26.0646 73.6084 26.7729 73.6095H132.413C132.917 73.6095 133.41 73.4656 133.832 73.1954C134.253 72.9252 134.584 72.5406 134.786 72.0889C134.987 71.637 135.048 71.1376 134.963 70.6521C134.877 70.1667 134.648 69.7161 134.305 69.3558L112.019 45.9975ZM2.58723 29.2191H108.233C108.943 29.2193 109.646 29.0769 110.297 28.8004C110.948 28.524 111.535 28.1194 112.019 27.612L134.305 4.25362C134.648 3.89342 134.877 3.44289 134.963 2.95737C135.048 2.47186 134.987 1.97252 134.786 1.5207C134.584 1.06888 134.253 0.684261 133.832 0.414104C133.41 0.143945 132.917 1.66372e-05 132.413 0H26.7729C26.0646 0.00117785 25.3642 0.144415 24.7149 0.420842C24.0657 0.69727 23.4814 1.101 22.9983 1.60705L0.701362 24.9654C0.357791 25.3252 0.129145 25.7754 0.0434653 26.2602C-0.0422148 26.7452 0.0187963 27.2442 0.219015 27.6958C0.419235 28.1474 0.74996 28.532 1.17063 28.8026C1.5913 29.0732 2.08362 29.2179 2.58723 29.2191Z" fill="#FFFDF8"/>
</g>
<defs>
<clipPath id="clip0_22_30">
<rect width="135" height="118" fill="white"/>
</clipPath>
</defs>
</svg>
