<svg width="35" height="35" viewBox="0 0 35 35" fill="none" xmlns="http://www.w3.org/2000/svg">
<path fill-rule="evenodd" clip-rule="evenodd" d="M31.9093 7.11003C33.3406 9.01884 34.3721 11.1961 34.9422 13.5119C32.6348 10.4133 29.2709 7.43128 25.094 5.00795C20.9172 2.58461 16.6582 1.14608 12.8212 0.67713C15.118 0.02473 17.5228 -0.158764 19.8922 0.137605C22.2614 0.433975 24.5467 1.20413 26.6114 2.40208C28.6761 3.60003 30.4779 5.20122 31.9093 7.11003ZM0 16.9541C3.37272 14.3842 10.3864 14.9611 16.7333 18.6435C23.0819 22.3266 27.0586 28.1258 26.494 32.3253C25.7905 32.7175 25.0611 33.0616 24.311 33.3553C24.082 32.3456 23.7402 31.3649 23.292 30.4313C21.6708 27.0239 18.6984 23.9369 14.9278 21.748C11.1571 19.5592 7.00195 18.5105 3.23302 18.7937C2.19898 18.868 1.17645 19.0572 0.184307 19.3575C0.0682027 18.5615 0.0066247 17.7585 0 16.9541ZM8.8526 32.1926C6.68512 30.9352 4.80824 29.2346 3.34505 27.202C5.65595 27.3597 8.12062 28.0972 10.448 29.4472C12.7753 30.7972 14.6395 32.5704 15.9221 34.4978C13.4292 34.2355 11.0201 33.4499 8.8526 32.1926ZM13.5753 24.0717C9.09149 21.4702 4.23843 20.8072 0.765924 21.9784C1.10115 23.0849 1.54326 24.1563 2.08602 25.1774C5.10303 25.1075 8.39709 25.9259 11.4622 27.7038C14.5274 29.4817 16.8717 31.9355 18.3063 34.5881C19.464 34.5527 20.6155 34.4053 21.7448 34.1484C21.0427 30.5562 18.0581 26.6738 13.5753 24.0717ZM29.3596 22.0048C27.3956 18.7474 24.0311 15.6282 19.8865 13.2237C15.7419 10.8191 11.3632 9.4456 7.56018 9.35474C4.21447 9.2756 1.70342 10.2469 0.672698 12.0191C0.669459 12.0248 0.665506 12.0305 0.661528 12.0361C0.658296 12.0407 0.655048 12.0453 0.652153 12.0501C0.559412 12.3824 0.479585 12.7154 0.406801 13.0496C1.84605 12.4821 3.51362 12.1662 5.36786 12.1309C9.49131 12.0536 14.106 13.3708 18.3645 15.8416C22.6229 18.3124 26.0573 21.6649 28.0318 25.2793C28.917 26.9078 29.4693 28.511 29.6883 30.0427C29.9431 29.8153 30.1931 29.5802 30.4355 29.3358C30.439 29.3299 30.4418 29.3237 30.4446 29.3175C30.4471 29.3121 30.4495 29.3067 30.4525 29.3012C31.4833 27.5274 31.0847 24.8684 29.3596 22.0048ZM23.0701 7.75062C27.244 10.171 30.6379 13.299 32.6241 16.5529C34.1374 19.0343 34.6405 21.3374 34.0623 23.0087C32.3753 18.3947 28.0048 13.527 21.804 9.92951C15.6033 6.33202 9.20591 4.9527 4.3558 5.77337C5.52387 4.44329 7.77665 3.73928 10.6851 3.8231C14.5003 3.93507 18.8962 5.33022 23.0701 7.75062Z" fill="url(#paint0_linear_22_657)"/>
<defs>
<linearGradient id="paint0_linear_22_657" x1="23.1319" y1="7.02572" x2="7.20291" y2="34.7684" gradientUnits="userSpaceOnUse">
<stop offset="0.0001" stop-color="#C7F284"/>
<stop offset="1" stop-color="#00BEF0"/>
</linearGradient>
</defs>
</svg>
