<svg width="73" height="76" viewBox="0 0 73 76" fill="none" xmlns="http://www.w3.org/2000/svg">
<path d="M22.4615 0H19.6538V2.81481H22.4615V0Z" fill="white"/>
<path d="M25.2692 0H22.4615V2.81481H25.2692V0Z" fill="white"/>
<path d="M28.0769 0H25.2692V2.81481H28.0769V0Z" fill="white"/>
<path d="M30.8846 0H28.0769V2.81481H30.8846V0Z" fill="white"/>
<path d="M33.6923 0H30.8846V2.81481H33.6923V0Z" fill="white"/>
<path d="M36.5 0H33.6923V2.81481H36.5V0Z" fill="white"/>
<path d="M14.0385 2.81481H11.2308V5.62963H14.0385V2.81481Z" fill="white"/>
<path d="M16.8462 2.81481H14.0385V5.62963H16.8462V2.81481Z" fill="white"/>
<path d="M19.6538 2.81481H16.8462V5.62963H19.6538V2.81481Z" fill="white"/>
<path d="M39.3077 2.81481H36.5V5.62963H39.3077V2.81481Z" fill="white"/>
<path d="M42.1154 2.81481H39.3077V5.62963H42.1154V2.81481Z" fill="white"/>
<path d="M44.9231 2.81481H42.1154V5.62963H44.9231V2.81481Z" fill="white"/>
<path d="M64.5769 2.81481H61.7692V5.62963H64.5769V2.81481Z" fill="white"/>
<path d="M8.42308 5.62963H5.61538V8.44444H8.42308V5.62963Z" fill="white"/>
<path d="M11.2308 5.62963H8.42308V8.44444H11.2308V5.62963Z" fill="white"/>
<path d="M47.7308 5.62963H44.9231V8.44444H47.7308V5.62963Z" fill="white"/>
<path d="M50.5385 5.62963H47.7308V8.44444H50.5385V5.62963Z" fill="white"/>
<path d="M61.7692 5.62963H58.9615V8.44444H61.7692V5.62963Z" fill="white"/>
<path d="M67.3846 5.62963H64.5769V8.44444H67.3846V5.62963Z" fill="white"/>
<path d="M5.61538 8.44444H2.80769V11.2593H5.61538V8.44444Z" fill="white"/>
<path d="M36.5 8.44444H33.6923V11.2593H36.5V8.44444Z" fill="white"/>
<path d="M39.3077 8.44444H36.5V11.2593H39.3077V8.44444Z" fill="white"/>
<path d="M53.3462 8.44444H50.5385V11.2593H53.3462V8.44444Z" fill="white"/>
<path d="M56.1538 8.44444H53.3462V11.2593H56.1538V8.44444Z" fill="white"/>
<path d="M58.9615 8.44444H56.1538V11.2593H58.9615V8.44444Z" fill="white"/>
<path d="M64.5769 8.44444H61.7692V11.2593H64.5769V8.44444Z" fill="white"/>
<path d="M67.3846 8.44444H64.5769V11.2593H67.3846V8.44444Z" fill="white"/>
<path d="M5.61538 11.2593H2.80769V14.0741H5.61538V11.2593Z" fill="white"/>
<path d="M33.6923 11.2593H30.8846V14.0741H33.6923V11.2593Z" fill="white"/>
<path d="M39.3077 11.2593H36.5V14.0741H39.3077V11.2593Z" fill="white"/>
<path d="M42.1154 11.2593H39.3077V14.0741H42.1154V11.2593Z" fill="white"/>
<path d="M56.1538 11.2593H53.3462V14.0741H56.1538V11.2593Z" fill="white"/>
<path d="M61.7692 11.2593H58.9615V14.0741H61.7692V11.2593Z" fill="white"/>
<path d="M64.5769 11.2593H61.7692V14.0741H64.5769V11.2593Z" fill="white"/>
<path d="M67.3846 11.2593H64.5769V14.0741H67.3846V11.2593Z" fill="white"/>
<path d="M70.1923 11.2593H67.3846V14.0741H70.1923V11.2593Z" fill="white"/>
<path d="M2.80769 14.0741H0V16.8889H2.80769V14.0741Z" fill="white"/>
<path d="M30.8846 14.0741H28.0769V16.8889H30.8846V14.0741Z" fill="white"/>
<path d="M39.3077 14.0741H36.5V16.8889H39.3077V14.0741Z" fill="white"/>
<path d="M42.1154 14.0741H39.3077V16.8889H42.1154V14.0741Z" fill="white"/>
<path d="M44.9231 14.0741H42.1154V16.8889H44.9231V14.0741Z" fill="white"/>
<path d="M56.1538 14.0741H53.3462V16.8889H56.1538V14.0741Z" fill="white"/>
<path d="M73 14.0741H70.1923V16.8889H73V14.0741Z" fill="white"/>
<path d="M2.80769 16.8889H0V19.7037H2.80769V16.8889Z" fill="white"/>
<path d="M28.0769 16.8889H25.2692V19.7037H28.0769V16.8889Z" fill="white"/>
<path d="M36.5 16.8889H33.6923V19.7037H36.5V16.8889Z" fill="white"/>
<path d="M39.3077 16.8889H36.5V19.7037H39.3077V16.8889Z" fill="white"/>
<path d="M42.1154 16.8889H39.3077V19.7037H42.1154V16.8889Z" fill="white"/>
<path d="M47.7308 16.8889H44.9231V19.7037H47.7308V16.8889Z" fill="white"/>
<path d="M73 16.8889H70.1923V19.7037H73V16.8889Z" fill="white"/>
<path d="M2.80769 19.7037H0V22.5185H2.80769V19.7037Z" fill="white"/>
<path d="M28.0769 19.7037H25.2692V22.5185H28.0769V19.7037Z" fill="white"/>
<path d="M36.5 19.7037H33.6923V22.5185H36.5V19.7037Z" fill="white"/>
<path d="M39.3077 19.7037H36.5V22.5185H39.3077V19.7037Z" fill="white"/>
<path d="M58.9615 19.7037H56.1538V22.5185H58.9615V19.7037Z" fill="white"/>
<path d="M61.7692 19.7037H58.9615V22.5185H61.7692V19.7037Z" fill="white"/>
<path d="M64.5769 19.7037H61.7692V22.5185H64.5769V19.7037Z" fill="white"/>
<path d="M67.3846 19.7037H64.5769V22.5185H67.3846V19.7037Z" fill="white"/>
<path d="M73 19.7037H70.1923V22.5185H73V19.7037Z" fill="white"/>
<path d="M2.80769 22.5185H0V25.3333H2.80769V22.5185Z" fill="white"/>
<path d="M28.0769 22.5185H25.2692V25.3333H28.0769V22.5185Z" fill="white"/>
<path d="M36.5 22.5185H33.6923V25.3333H36.5V22.5185Z" fill="white"/>
<path d="M47.7308 22.5185H44.9231V25.3333H47.7308V22.5185Z" fill="white"/>
<path d="M50.5385 22.5185H47.7308V25.3333H50.5385V22.5185Z" fill="white"/>
<path d="M53.3462 22.5185H50.5385V25.3333H53.3462V22.5185Z" fill="white"/>
<path d="M56.1538 22.5185H53.3462V25.3333H56.1538V22.5185Z" fill="white"/>
<path d="M58.9615 22.5185H56.1538V25.3333H58.9615V22.5185Z" fill="white"/>
<path d="M61.7692 22.5185H58.9615V25.3333H61.7692V22.5185Z" fill="white"/>
<path d="M64.5769 22.5185H61.7692V25.3333H64.5769V22.5185Z" fill="white"/>
<path d="M67.3846 22.5185H64.5769V25.3333H67.3846V22.5185Z" fill="white"/>
<path d="M70.1923 22.5185H67.3846V25.3333H70.1923V22.5185Z" fill="white"/>
<path d="M73 22.5185H70.1923V25.3333H73V22.5185Z" fill="white"/>
<path d="M2.80769 25.3333H0V28.1481H2.80769V25.3333Z" fill="white"/>
<path d="M42.1154 25.3333H39.3077V28.1481H42.1154V25.3333Z" fill="white"/>
<path d="M44.9231 25.3333H42.1154V28.1481H44.9231V25.3333Z" fill="white"/>
<path d="M47.7308 25.3333H44.9231V28.1481H47.7308V25.3333Z" fill="white"/>
<path d="M50.5385 25.3333H47.7308V28.1481H50.5385V25.3333Z" fill="white"/>
<path d="M53.3462 25.3333H50.5385V28.1481H53.3462V25.3333Z" fill="white"/>
<path d="M56.1538 25.3333H53.3462V28.1481H56.1538V25.3333Z" fill="white"/>
<path d="M58.9615 25.3333H56.1538V28.1481H58.9615V25.3333Z" fill="white"/>
<path d="M61.7692 25.3333H58.9615V28.1481H61.7692V25.3333Z" fill="white"/>
<path d="M64.5769 25.3333H61.7692V28.1481H64.5769V25.3333Z" fill="white"/>
<path d="M67.3846 25.3333H64.5769V28.1481H67.3846V25.3333Z" fill="white"/>
<path d="M70.1923 25.3333H67.3846V28.1481H70.1923V25.3333Z" fill="white"/>
<path d="M73 25.3333H70.1923V28.1481H73V25.3333Z" fill="white"/>
<path d="M2.80769 28.1481H0V30.963H2.80769V28.1481Z" fill="white"/>
<path d="M39.3077 28.1481H36.5V30.963H39.3077V28.1481Z" fill="white"/>
<path d="M42.1154 28.1481H39.3077V30.963H42.1154V28.1481Z" fill="white"/>
<path d="M44.9231 28.1481H42.1154V30.963H44.9231V28.1481Z" fill="white"/>
<path d="M47.7308 28.1481H44.9231V30.963H47.7308V28.1481Z" fill="white"/>
<path d="M50.5385 28.1481H47.7308V30.963H50.5385V28.1481Z" fill="white"/>
<path d="M53.3462 28.1481H50.5385V30.963H53.3462V28.1481Z" fill="white"/>
<path d="M56.1538 28.1481H53.3462V30.963H56.1538V28.1481Z" fill="white"/>
<path d="M58.9615 28.1481H56.1538V30.963H58.9615V28.1481Z" fill="white"/>
<path d="M61.7692 28.1481H58.9615V30.963H61.7692V28.1481Z" fill="white"/>
<path d="M67.3846 28.1481H64.5769V30.963H67.3846V28.1481Z" fill="white"/>
<path d="M70.1923 28.1481H67.3846V30.963H70.1923V28.1481Z" fill="white"/>
<path d="M73 28.1481H70.1923V30.963H73V28.1481Z" fill="white"/>
<path d="M5.61538 30.963H2.80769V33.7778H5.61538V30.963Z" fill="white"/>
<path d="M36.5 30.963H33.6923V33.7778H36.5V30.963Z" fill="white"/>
<path d="M39.3077 30.963H36.5V33.7778H39.3077V30.963Z" fill="white"/>
<path d="M42.1154 30.963H39.3077V33.7778H42.1154V30.963Z" fill="white"/>
<path d="M44.9231 30.963H42.1154V33.7778H44.9231V30.963Z" fill="white"/>
<path d="M47.7308 30.963H44.9231V33.7778H47.7308V30.963Z" fill="white"/>
<path d="M50.5385 30.963H47.7308V33.7778H50.5385V30.963Z" fill="white"/>
<path d="M53.3462 30.963H50.5385V33.7778H53.3462V30.963Z" fill="white"/>
<path d="M56.1538 30.963H53.3462V33.7778H56.1538V30.963Z" fill="white"/>
<path d="M58.9615 30.963H56.1538V33.7778H58.9615V30.963Z" fill="white"/>
<path d="M61.7692 30.963H58.9615V33.7778H61.7692V30.963Z" fill="white"/>
<path d="M67.3846 30.963H64.5769V33.7778H67.3846V30.963Z" fill="white"/>
<path d="M70.1923 30.963H67.3846V33.7778H70.1923V30.963Z" fill="white"/>
<path d="M73 30.963H70.1923V33.7778H73V30.963Z" fill="white"/>
<path d="M5.61538 33.7778H2.80769V36.5926H5.61538V33.7778Z" fill="white"/>
<path d="M36.5 33.7778H33.6923V36.5926H36.5V33.7778Z" fill="white"/>
<path d="M39.3077 33.7778H36.5V36.5926H39.3077V33.7778Z" fill="white"/>
<path d="M42.1154 33.7778H39.3077V36.5926H42.1154V33.7778Z" fill="white"/>
<path d="M47.7308 33.7778H44.9231V36.5926H47.7308V33.7778Z" fill="white"/>
<path d="M50.5385 33.7778H47.7308V36.5926H50.5385V33.7778Z" fill="white"/>
<path d="M53.3462 33.7778H50.5385V36.5926H53.3462V33.7778Z" fill="white"/>
<path d="M56.1538 33.7778H53.3462V36.5926H56.1538V33.7778Z" fill="white"/>
<path d="M58.9615 33.7778H56.1538V36.5926H58.9615V33.7778Z" fill="white"/>
<path d="M61.7692 33.7778H58.9615V36.5926H61.7692V33.7778Z" fill="white"/>
<path d="M64.5769 33.7778H61.7692V36.5926H64.5769V33.7778Z" fill="white"/>
<path d="M67.3846 33.7778H64.5769V36.5926H67.3846V33.7778Z" fill="white"/>
<path d="M70.1923 33.7778H67.3846V36.5926H70.1923V33.7778Z" fill="white"/>
<path d="M73 33.7778H70.1923V36.5926H73V33.7778Z" fill="white"/>
<path d="M5.61538 36.5926H2.80769V39.4074H5.61538V36.5926Z" fill="white"/>
<path d="M36.5 36.5926H33.6923V39.4074H36.5V36.5926Z" fill="white"/>
<path d="M39.3077 36.5926H36.5V39.4074H39.3077V36.5926Z" fill="white"/>
<path d="M42.1154 36.5926H39.3077V39.4074H42.1154V36.5926Z" fill="white"/>
<path d="M47.7308 36.5926H44.9231V39.4074H47.7308V36.5926Z" fill="white"/>
<path d="M50.5385 36.5926H47.7308V39.4074H50.5385V36.5926Z" fill="white"/>
<path d="M53.3462 36.5926H50.5385V39.4074H53.3462V36.5926Z" fill="white"/>
<path d="M58.9615 36.5926H56.1538V39.4074H58.9615V36.5926Z" fill="white"/>
<path d="M61.7692 36.5926H58.9615V39.4074H61.7692V36.5926Z" fill="white"/>
<path d="M67.3846 36.5926H64.5769V39.4074H67.3846V36.5926Z" fill="white"/>
<path d="M70.1923 36.5926H67.3846V39.4074H70.1923V36.5926Z" fill="white"/>
<path d="M5.61538 39.4074H2.80769V42.2222H5.61538V39.4074Z" fill="white"/>
<path d="M36.5 39.4074H33.6923V42.2222H36.5V39.4074Z" fill="white"/>
<path d="M39.3077 39.4074H36.5V42.2222H39.3077V39.4074Z" fill="white"/>
<path d="M42.1154 39.4074H39.3077V42.2222H42.1154V39.4074Z" fill="white"/>
<path d="M44.9231 39.4074H42.1154V42.2222H44.9231V39.4074Z" fill="white"/>
<path d="M47.7308 39.4074H44.9231V42.2222H47.7308V39.4074Z" fill="white"/>
<path d="M50.5385 39.4074H47.7308V42.2222H50.5385V39.4074Z" fill="white"/>
<path d="M56.1538 39.4074H53.3462V42.2222H56.1538V39.4074Z" fill="white"/>
<path d="M64.5769 39.4074H61.7692V42.2222H64.5769V39.4074Z" fill="white"/>
<path d="M67.3846 39.4074H64.5769V42.2222H67.3846V39.4074Z" fill="white"/>
<path d="M70.1923 39.4074H67.3846V42.2222H70.1923V39.4074Z" fill="white"/>
<path d="M5.61538 42.2222H2.80769V45.037H5.61538V42.2222Z" fill="white"/>
<path d="M36.5 42.2222H33.6923V45.037H36.5V42.2222Z" fill="white"/>
<path d="M39.3077 42.2222H36.5V45.037H39.3077V42.2222Z" fill="white"/>
<path d="M42.1154 42.2222H39.3077V45.037H42.1154V42.2222Z" fill="white"/>
<path d="M44.9231 42.2222H42.1154V45.037H44.9231V42.2222Z" fill="white"/>
<path d="M53.3462 42.2222H50.5385V45.037H53.3462V42.2222Z" fill="white"/>
<path d="M56.1538 42.2222H53.3462V45.037H56.1538V42.2222Z" fill="white"/>
<path d="M58.9615 42.2222H56.1538V45.037H58.9615V42.2222Z" fill="white"/>
<path d="M61.7692 42.2222H58.9615V45.037H61.7692V42.2222Z" fill="white"/>
<path d="M64.5769 42.2222H61.7692V45.037H64.5769V42.2222Z" fill="white"/>
<path d="M67.3846 42.2222H64.5769V45.037H67.3846V42.2222Z" fill="white"/>
<path d="M70.1923 42.2222H67.3846V45.037H70.1923V42.2222Z" fill="white"/>
<path d="M5.61538 45.037H2.80769V47.8519H5.61538V45.037Z" fill="white"/>
<path d="M36.5 45.037H33.6923V47.8519H36.5V45.037Z" fill="white"/>
<path d="M39.3077 45.037H36.5V47.8519H39.3077V45.037Z" fill="white"/>
<path d="M42.1154 45.037H39.3077V47.8519H42.1154V45.037Z" fill="white"/>
<path d="M44.9231 45.037H42.1154V47.8519H44.9231V45.037Z" fill="white"/>
<path d="M47.7308 45.037H44.9231V47.8519H47.7308V45.037Z" fill="white"/>
<path d="M50.5385 45.037H47.7308V47.8519H50.5385V45.037Z" fill="white"/>
<path d="M53.3462 45.037H50.5385V47.8519H53.3462V45.037Z" fill="white"/>
<path d="M56.1538 45.037H53.3462V47.8519H56.1538V45.037Z" fill="white"/>
<path d="M58.9615 45.037H56.1538V47.8519H58.9615V45.037Z" fill="white"/>
<path d="M61.7692 45.037H58.9615V47.8519H61.7692V45.037Z" fill="white"/>
<path d="M64.5769 45.037H61.7692V47.8519H64.5769V45.037Z" fill="white"/>
<path d="M67.3846 45.037H64.5769V47.8519H67.3846V45.037Z" fill="white"/>
<path d="M70.1923 45.037H67.3846V47.8519H70.1923V45.037Z" fill="white"/>
<path d="M5.61538 47.8519H2.80769V50.6667H5.61538V47.8519Z" fill="white"/>
<path d="M39.3077 47.8519H36.5V50.6667H39.3077V47.8519Z" fill="white"/>
<path d="M42.1154 47.8519H39.3077V50.6667H42.1154V47.8519Z" fill="white"/>
<path d="M44.9231 47.8519H42.1154V50.6667H44.9231V47.8519Z" fill="white"/>
<path d="M47.7308 47.8519H44.9231V50.6667H47.7308V47.8519Z" fill="white"/>
<path d="M50.5385 47.8519H47.7308V50.6667H50.5385V47.8519Z" fill="white"/>
<path d="M53.3462 47.8519H50.5385V50.6667H53.3462V47.8519Z" fill="white"/>
<path d="M56.1538 47.8519H53.3462V50.6667H56.1538V47.8519Z" fill="white"/>
<path d="M58.9615 47.8519H56.1538V50.6667H58.9615V47.8519Z" fill="white"/>
<path d="M61.7692 47.8519H58.9615V50.6667H61.7692V47.8519Z" fill="white"/>
<path d="M64.5769 47.8519H61.7692V50.6667H64.5769V47.8519Z" fill="white"/>
<path d="M67.3846 47.8519H64.5769V50.6667H67.3846V47.8519Z" fill="white"/>
<path d="M70.1923 47.8519H67.3846V50.6667H70.1923V47.8519Z" fill="white"/>
<path d="M5.61538 50.6667H2.80769V53.4815H5.61538V50.6667Z" fill="white"/>
<path d="M39.3077 50.6667H36.5V53.4815H39.3077V50.6667Z" fill="white"/>
<path d="M42.1154 50.6667H39.3077V53.4815H42.1154V50.6667Z" fill="white"/>
<path d="M44.9231 50.6667H42.1154V53.4815H44.9231V50.6667Z" fill="white"/>
<path d="M47.7308 50.6667H44.9231V53.4815H47.7308V50.6667Z" fill="white"/>
<path d="M50.5385 50.6667H47.7308V53.4815H50.5385V50.6667Z" fill="white"/>
<path d="M53.3462 50.6667H50.5385V53.4815H53.3462V50.6667Z" fill="white"/>
<path d="M56.1538 50.6667H53.3462V53.4815H56.1538V50.6667Z" fill="white"/>
<path d="M58.9615 50.6667H56.1538V53.4815H58.9615V50.6667Z" fill="white"/>
<path d="M61.7692 50.6667H58.9615V53.4815H61.7692V50.6667Z" fill="white"/>
<path d="M64.5769 50.6667H61.7692V53.4815H64.5769V50.6667Z" fill="white"/>
<path d="M67.3846 50.6667H64.5769V53.4815H67.3846V50.6667Z" fill="white"/>
<path d="M70.1923 50.6667H67.3846V53.4815H70.1923V50.6667Z" fill="white"/>
<path d="M5.61538 53.4815H2.80769V56.2963H5.61538V53.4815Z" fill="white"/>
<path d="M39.3077 53.4815H36.5V56.2963H39.3077V53.4815Z" fill="white"/>
<path d="M42.1154 53.4815H39.3077V56.2963H42.1154V53.4815Z" fill="white"/>
<path d="M44.9231 53.4815H42.1154V56.2963H44.9231V53.4815Z" fill="white"/>
<path d="M47.7308 53.4815H44.9231V56.2963H47.7308V53.4815Z" fill="white"/>
<path d="M50.5385 53.4815H47.7308V56.2963H50.5385V53.4815Z" fill="white"/>
<path d="M53.3462 53.4815H50.5385V56.2963H53.3462V53.4815Z" fill="white"/>
<path d="M56.1538 53.4815H53.3462V56.2963H56.1538V53.4815Z" fill="white"/>
<path d="M58.9615 53.4815H56.1538V56.2963H58.9615V53.4815Z" fill="white"/>
<path d="M61.7692 53.4815H58.9615V56.2963H61.7692V53.4815Z" fill="white"/>
<path d="M64.5769 53.4815H61.7692V56.2963H64.5769V53.4815Z" fill="white"/>
<path d="M67.3846 53.4815H64.5769V56.2963H67.3846V53.4815Z" fill="white"/>
<path d="M70.1923 53.4815H67.3846V56.2963H70.1923V53.4815Z" fill="white"/>
<path d="M5.61538 56.2963H2.80769V59.1111H5.61538V56.2963Z" fill="white"/>
<path d="M39.3077 56.2963H36.5V59.1111H39.3077V56.2963Z" fill="white"/>
<path d="M42.1154 56.2963H39.3077V59.1111H42.1154V56.2963Z" fill="white"/>
<path d="M44.9231 56.2963H42.1154V59.1111H44.9231V56.2963Z" fill="white"/>
<path d="M47.7308 56.2963H44.9231V59.1111H47.7308V56.2963Z" fill="white"/>
<path d="M50.5385 56.2963H47.7308V59.1111H50.5385V56.2963Z" fill="white"/>
<path d="M53.3462 56.2963H50.5385V59.1111H53.3462V56.2963Z" fill="white"/>
<path d="M56.1538 56.2963H53.3462V59.1111H56.1538V56.2963Z" fill="white"/>
<path d="M58.9615 56.2963H56.1538V59.1111H58.9615V56.2963Z" fill="white"/>
<path d="M61.7692 56.2963H58.9615V59.1111H61.7692V56.2963Z" fill="white"/>
<path d="M64.5769 56.2963H61.7692V59.1111H64.5769V56.2963Z" fill="white"/>
<path d="M67.3846 56.2963H64.5769V59.1111H67.3846V56.2963Z" fill="white"/>
<path d="M70.1923 56.2963H67.3846V59.1111H70.1923V56.2963Z" fill="white"/>
<path d="M5.61538 59.1111H2.80769V61.9259H5.61538V59.1111Z" fill="white"/>
<path d="M39.3077 59.1111H36.5V61.9259H39.3077V59.1111Z" fill="white"/>
<path d="M42.1154 59.1111H39.3077V61.9259H42.1154V59.1111Z" fill="white"/>
<path d="M44.9231 59.1111H42.1154V61.9259H44.9231V59.1111Z" fill="white"/>
<path d="M47.7308 59.1111H44.9231V61.9259H47.7308V59.1111Z" fill="white"/>
<path d="M50.5385 59.1111H47.7308V61.9259H50.5385V59.1111Z" fill="white"/>
<path d="M53.3462 59.1111H50.5385V61.9259H53.3462V59.1111Z" fill="white"/>
<path d="M56.1538 59.1111H53.3462V61.9259H56.1538V59.1111Z" fill="white"/>
<path d="M58.9615 59.1111H56.1538V61.9259H58.9615V59.1111Z" fill="white"/>
<path d="M61.7692 59.1111H58.9615V61.9259H61.7692V59.1111Z" fill="white"/>
<path d="M64.5769 59.1111H61.7692V61.9259H64.5769V59.1111Z" fill="white"/>
<path d="M67.3846 59.1111H64.5769V61.9259H67.3846V59.1111Z" fill="white"/>
<path d="M70.1923 59.1111H67.3846V61.9259H70.1923V59.1111Z" fill="white"/>
<path d="M8.42308 61.9259H5.61538V64.7407H8.42308V61.9259Z" fill="white"/>
<path d="M11.2308 61.9259H8.42308V64.7407H11.2308V61.9259Z" fill="white"/>
<path d="M39.3077 61.9259H36.5V64.7407H39.3077V61.9259Z" fill="white"/>
<path d="M42.1154 61.9259H39.3077V64.7407H42.1154V61.9259Z" fill="white"/>
<path d="M44.9231 61.9259H42.1154V64.7407H44.9231V61.9259Z" fill="white"/>
<path d="M47.7308 61.9259H44.9231V64.7407H47.7308V61.9259Z" fill="white"/>
<path d="M50.5385 61.9259H47.7308V64.7407H50.5385V61.9259Z" fill="white"/>
<path d="M53.3462 61.9259H50.5385V64.7407H53.3462V61.9259Z" fill="white"/>
<path d="M56.1538 61.9259H53.3462V64.7407H56.1538V61.9259Z" fill="white"/>
<path d="M58.9615 61.9259H56.1538V64.7407H58.9615V61.9259Z" fill="white"/>
<path d="M61.7692 61.9259H58.9615V64.7407H61.7692V61.9259Z" fill="white"/>
<path d="M64.5769 61.9259H61.7692V64.7407H64.5769V61.9259Z" fill="white"/>
<path d="M67.3846 61.9259H64.5769V64.7407H67.3846V61.9259Z" fill="white"/>
<path d="M70.1923 61.9259H67.3846V64.7407H70.1923V61.9259Z" fill="white"/>
<path d="M14.0385 64.7407H11.2308V67.5556H14.0385V64.7407Z" fill="white"/>
<path d="M16.8462 64.7407H14.0385V67.5556H16.8462V64.7407Z" fill="white"/>
<path d="M39.3077 64.7407H36.5V67.5556H39.3077V64.7407Z" fill="white"/>
<path d="M42.1154 64.7407H39.3077V67.5556H42.1154V64.7407Z" fill="white"/>
<path d="M44.9231 64.7407H42.1154V67.5556H44.9231V64.7407Z" fill="white"/>
<path d="M47.7308 64.7407H44.9231V67.5556H47.7308V64.7407Z" fill="white"/>
<path d="M50.5385 64.7407H47.7308V67.5556H50.5385V64.7407Z" fill="white"/>
<path d="M53.3462 64.7407H50.5385V67.5556H53.3462V64.7407Z" fill="white"/>
<path d="M56.1538 64.7407H53.3462V67.5556H56.1538V64.7407Z" fill="white"/>
<path d="M58.9615 64.7407H56.1538V67.5556H58.9615V64.7407Z" fill="white"/>
<path d="M61.7692 64.7407H58.9615V67.5556H61.7692V64.7407Z" fill="white"/>
<path d="M64.5769 64.7407H61.7692V67.5556H64.5769V64.7407Z" fill="white"/>
<path d="M67.3846 64.7407H64.5769V67.5556H67.3846V64.7407Z" fill="white"/>
<path d="M19.6538 67.5556H16.8462V70.3704H19.6538V67.5556Z" fill="white"/>
<path d="M22.4615 67.5556H19.6538V70.3704H22.4615V67.5556Z" fill="white"/>
<path d="M25.2692 67.5556H22.4615V70.3704H25.2692V67.5556Z" fill="white"/>
<path d="M39.3077 67.5556H36.5V70.3704H39.3077V67.5556Z" fill="white"/>
<path d="M42.1154 67.5556H39.3077V70.3704H42.1154V67.5556Z" fill="white"/>
<path d="M44.9231 67.5556H42.1154V70.3704H44.9231V67.5556Z" fill="white"/>
<path d="M47.7308 67.5556H44.9231V70.3704H47.7308V67.5556Z" fill="white"/>
<path d="M50.5385 67.5556H47.7308V70.3704H50.5385V67.5556Z" fill="white"/>
<path d="M53.3462 67.5556H50.5385V70.3704H53.3462V67.5556Z" fill="white"/>
<path d="M56.1538 67.5556H53.3462V70.3704H56.1538V67.5556Z" fill="white"/>
<path d="M58.9615 67.5556H56.1538V70.3704H58.9615V67.5556Z" fill="white"/>
<path d="M61.7692 67.5556H58.9615V70.3704H61.7692V67.5556Z" fill="white"/>
<path d="M28.0769 70.3704H25.2692V73.1852H28.0769V70.3704Z" fill="white"/>
<path d="M30.8846 70.3704H28.0769V73.1852H30.8846V70.3704Z" fill="white"/>
<path d="M33.6923 70.3704H30.8846V73.1852H33.6923V70.3704Z" fill="white"/>
<path d="M39.3077 70.3704H36.5V73.1852H39.3077V70.3704Z" fill="white"/>
<path d="M42.1154 70.3704H39.3077V73.1852H42.1154V70.3704Z" fill="white"/>
<path d="M44.9231 70.3704H42.1154V73.1852H44.9231V70.3704Z" fill="white"/>
<path d="M47.7308 70.3704H44.9231V73.1852H47.7308V70.3704Z" fill="white"/>
<path d="M50.5385 70.3704H47.7308V73.1852H50.5385V70.3704Z" fill="white"/>
<path d="M53.3462 70.3704H50.5385V73.1852H53.3462V70.3704Z" fill="white"/>
<path d="M36.5 73.1852H33.6923V76H36.5V73.1852Z" fill="white"/>
<path d="M39.3077 73.1852H36.5V76H39.3077V73.1852Z" fill="white"/>
<path d="M42.1154 73.1852H39.3077V76H42.1154V73.1852Z" fill="white"/>
<path d="M44.9231 73.1852H42.1154V76H44.9231V73.1852Z" fill="white"/>
</svg>
