<svg width="74" height="65" viewBox="0 0 74 65" fill="none" xmlns="http://www.w3.org/2000/svg">
<path d="M73.619 51.2478L61.403 64.1147C61.1375 64.3942 60.8161 64.6171 60.4591 64.7694C60.1021 64.9217 59.7169 65.0002 59.3277 65H1.41818C1.14186 65 0.871566 64.9207 0.640505 64.7719C0.409439 64.6231 0.227671 64.4112 0.117533 64.1623C0.00739436 63.9135 -0.0263162 63.6384 0.0205428 63.3709C0.0674018 63.1035 0.192789 62.8553 0.381299 62.6569L12.6065 49.79C12.8713 49.5112 13.1916 49.2888 13.5474 49.1366C13.9034 48.9843 14.2873 48.9054 14.6755 48.9047H72.5818C72.8581 48.9047 73.1284 48.9841 73.3596 49.1328C73.5904 49.2817 73.7721 49.4936 73.8828 49.7424C73.9927 49.9914 74.0264 50.2663 73.9795 50.5338C73.9326 50.8013 73.8073 51.0494 73.619 51.2478ZM61.403 25.3376C61.1375 25.0581 60.8161 24.8352 60.4591 24.6829C60.1021 24.5307 59.7169 24.4522 59.3277 24.4524H1.41818C1.14186 24.4524 0.871566 24.5317 0.640505 24.6805C0.409439 24.8293 0.227671 25.0412 0.117533 25.29C0.00739436 25.5389 -0.0263162 25.814 0.0205428 26.0815C0.0674018 26.3489 0.192789 26.597 0.381299 26.7955L12.6065 39.6624C12.8713 39.9412 13.1916 40.1635 13.5474 40.3158C13.9034 40.468 14.2873 40.547 14.6755 40.5476H72.5818C72.8581 40.5476 73.1284 40.4683 73.3596 40.3195C73.5904 40.1707 73.7721 39.9588 73.8828 39.71C73.9927 39.4611 74.0264 39.186 73.9795 38.9185C73.9326 38.6511 73.8073 38.403 73.619 38.2045L61.403 25.3376ZM1.41818 16.0953H59.3277C59.7169 16.0954 60.1021 16.017 60.4591 15.8647C60.8161 15.7123 61.1375 15.4895 61.403 15.21L73.619 2.34309C73.8073 2.14468 73.9326 1.89651 73.9795 1.62906C74.0264 1.36162 73.9927 1.08656 73.8828 0.837673C73.7721 0.588789 73.5904 0.376923 73.3596 0.228108C73.1284 0.0792919 72.8581 9.16456e-06 72.5818 0H14.6755C14.2873 0.000648816 13.9034 0.0795504 13.5474 0.23182C13.1916 0.384089 12.8713 0.606485 12.6065 0.885241L0.384451 13.7522C0.196123 13.9503 0.0707908 14.1983 0.0238254 14.4654C-0.02314 14.7325 0.0103031 15.0074 0.120053 15.2562C0.229803 15.5049 0.411089 15.7168 0.641678 15.8658C0.87227 16.0149 1.14214 16.0946 1.41818 16.0953Z" fill="#FFFDF8"/>
</svg>
